<?xml version="1.0" encoding="utf-8"?>
<!-- Generator: Adobe Illustrator 24.0.3, SVG Export Plug-In . SVG Version: 6.00 Build 0)  -->
<svg version="1.1" id="Layer_1" xmlns="http://www.w3.org/2000/svg" xmlns:xlink="http://www.w3.org/1999/xlink" x="0px" y="0px"
	 viewBox="0 0 866.67 231.08" style="enable-background:new 0 0 866.67 231.08;" xml:space="preserve">
<style type="text/css">
	.st0{fill:#FFFFFF;}
</style>
<g>
	<polygon class="st0" points="115.65,77.02 115.65,128.23 114.43,128.23 96.89,77.02 77.02,77.02 77.02,154.05 91.15,154.05 
		91.15,102.85 92.36,102.85 109.91,154.05 129.77,154.05 129.77,77.02 	"/>
	<polygon class="st0" points="139.26,128.01 139.26,112.78 186.71,87.4 186.71,102.63 153.94,119.95 153.94,120.83 186.71,138.16 
		186.71,153.39 	"/>
	<polygon class="st0" points="194.43,138.16 227.21,120.83 227.21,119.95 194.43,102.63 194.43,87.4 241.88,112.78 241.88,128.01 
		194.43,153.39 	"/>
	<g>
		<path class="st0" d="M248.39,141.25h13.13v-31.34h-13.13v-12.8h29.46v16.11h0.77c0.51-2.06,1.23-4.06,2.15-6.01
			c0.92-1.95,2.1-3.68,3.53-5.18c1.44-1.51,3.18-2.7,5.24-3.59c2.06-0.88,4.49-1.32,7.28-1.32h5.41v15.01H290.1
			c-4.05,0-7.1,1.19-9.16,3.57c-2.06,2.38-3.09,5.3-3.09,8.74v16.82h18.76v12.8h-48.22V141.25z"/>
		<path class="st0" d="M343.95,154.05c-5.89,0-10.26-1.54-13.13-4.62c-2.87-3.08-4.3-7.01-4.3-11.78v-27.74h-15.45v-12.8h10.04
			c2.43,0,4.16-0.48,5.18-1.44c1.03-0.96,1.55-2.72,1.55-5.3V77.02h15v20.09h22.18v12.8h-22.18v31.34h22.18v12.8H343.95z"/>
		<path class="st0" d="M375.4,77.02h16.33v30.46h0.66c0.66-1.62,1.47-3.12,2.43-4.53c0.95-1.4,2.11-2.63,3.47-3.69
			c1.36-1.06,2.94-1.91,4.74-2.54c1.81-0.62,3.84-0.94,6.13-0.94c2.72,0,5.23,0.46,7.51,1.38c2.28,0.92,4.23,2.3,5.85,4.14
			c1.62,1.84,2.88,4.08,3.81,6.73c0.92,2.65,1.38,5.7,1.38,9.16v36.86h-16.33V119.4c0-7.35-3.2-11.03-9.6-11.03
			c-1.25,0-2.48,0.16-3.7,0.5c-1.21,0.33-2.3,0.85-3.25,1.54c-0.96,0.7-1.71,1.57-2.26,2.59c-0.55,1.03-0.83,2.25-0.83,3.64v37.41
			H375.4V77.02z"/>
		<path class="st0" d="M467.1,155.37c-10.3,0-17.93-3.47-22.9-10.43c-4.97-6.95-7.45-16.75-7.45-29.41s2.48-22.46,7.45-29.41
			c4.96-6.95,12.6-10.43,22.9-10.43c3.97,0,7.48,0.53,10.54,1.6c3.05,1.07,5.68,2.56,7.89,4.47c2.21,1.91,4.02,4.23,5.46,6.95
			c1.44,2.72,2.56,5.78,3.37,9.16l-15.45,3.76c-0.44-1.84-0.96-3.53-1.55-5.08c-0.59-1.55-1.34-2.87-2.26-3.97
			c-0.92-1.11-2.06-1.97-3.42-2.59c-1.36-0.62-3-0.94-4.91-0.94c-4.49,0-7.67,1.75-9.54,5.24c-1.87,3.5-2.82,8.33-2.82,14.51v13.46
			c0,6.18,0.94,11.02,2.82,14.51c1.88,3.5,5.06,5.24,9.54,5.24c3.83,0,6.6-1.18,8.33-3.53c1.73-2.36,3-5.37,3.81-9.05l15.45,3.75
			c-0.81,3.38-1.93,6.44-3.37,9.16c-1.43,2.72-3.25,5.06-5.46,7.01c-2.21,1.95-4.84,3.44-7.89,4.47
			C474.58,154.86,471.07,155.37,467.1,155.37"/>
	</g>
	<polygon class="st0" points="501.2,128.01 501.2,112.78 548.65,87.4 548.65,102.63 515.87,119.95 515.87,120.83 548.65,138.16 
		548.65,153.39 	"/>
	<polygon class="st0" points="556.37,138.16 589.14,120.83 589.14,119.95 556.37,102.63 556.37,87.4 603.82,112.78 603.82,128.01 
		556.37,153.39 	"/>
	<g>
		<path class="st0" d="M641.56,142.57c2.87,0,5.35-0.7,7.45-2.08c2.1-1.39,3.15-3.58,3.15-6.58v-16.66c0-3-1.05-5.19-3.15-6.58
			c-2.1-1.38-4.58-2.08-7.45-2.08c-3.68,0-6.51,1.11-8.5,3.34c-1.99,2.23-2.98,5.32-2.98,9.26v8.77c0,3.95,0.99,7.04,2.98,9.27
			C635.04,141.46,637.88,142.57,641.56,142.57 M652.15,143.57h-0.77c-1.47,3.49-3.52,6.33-6.13,8.52c-2.61,2.19-6.2,3.28-10.76,3.28
			c-3.16,0-6.05-0.59-8.66-1.77c-2.61-1.17-4.85-2.98-6.73-5.41c-1.87-2.43-3.35-5.52-4.42-9.27c-1.06-3.75-1.6-8.2-1.6-13.35
			c0-5.15,0.54-9.6,1.6-13.35c1.07-3.75,2.54-6.84,4.42-9.27c1.88-2.43,4.12-4.23,6.73-5.41c2.61-1.17,5.5-1.76,8.66-1.76
			c2.28,0,4.31,0.3,6.07,0.89c1.77,0.6,3.33,1.41,4.69,2.45c1.36,1.04,2.54,2.28,3.53,3.73c1,1.45,1.86,3.02,2.6,4.73h0.77V77.02
			h16.33v77.02h-16.33V143.57z"/>
	</g>
</g>
<g>
	<path class="st0" d="M706.11,107.48c-3.53,0-6.34,1.09-8.44,3.26c-2.1,2.17-3.15,5.09-3.15,8.77v0.88h22.96v-0.88
		c0-3.75-1.01-6.69-3.04-8.83C712.42,108.55,709.64,107.48,706.11,107.48 M707.44,155.37c-9.56,0-16.81-2.65-21.74-7.95
		c-4.93-5.3-7.39-12.5-7.39-21.63c0-4.63,0.64-8.81,1.93-12.53c1.29-3.72,3.12-6.88,5.52-9.49c2.39-2.61,5.29-4.6,8.71-5.96
		c3.42-1.36,7.27-2.04,11.53-2.04s8.09,0.68,11.48,2.04c3.38,1.36,6.25,3.3,8.6,5.79c2.35,2.5,4.17,5.53,5.46,9.1
		c1.29,3.57,1.93,7.56,1.93,11.97v4.85h-38.95v0.99c0,3.68,1.14,6.64,3.42,8.88c2.28,2.25,5.63,3.37,10.04,3.37
		c3.38,0,6.29-0.64,8.72-1.93c2.43-1.29,4.53-3,6.29-5.13l8.83,9.6c-2.21,2.72-5.3,5.08-9.27,7.06
		C718.58,154.38,713.54,155.37,707.44,155.37"/>
</g>
<path class="st0" d="M762.66,104.9V77.02h7.48l6.01,12.12h0.4l6.11-12.12h6.99v27.88h-5.71V93.67l0.4-8.57h-0.4l-7.78,14.88
	l-7.78-14.88h-0.39l0.39,8.57v11.23H762.66z M745.12,104.9V82.15h-7.78v-5.12h22.07v5.12h-7.78v22.75H745.12z"/>
</svg>
